<svg xmlns="http://www.w3.org/2000/svg" fill="none" stroke-linecap="square" stroke-miterlimit="10" viewBox="0 0 512 512"><clipPath id="a"><path d="M0 0h512v512H0V0z"/></clipPath><g fill-rule="evenodd" clip-path="url(#a)"><path fill="#2980b9" d="M0 256.978c0-141.385 114.615-256 256-256a256 256 0 0 1 256 256c0 141.385-114.615 256-256 256S0 398.363 0 256.978z"/><path fill="#3498db" d="M12.714 256.984c0-134.367 108.925-243.292 243.291-243.292a243.291 243.291 0 0 1 243.292 243.292c0 134.366-108.926 243.29-243.292 243.29-134.366 0-243.291-108.924-243.291-243.29z"/><path fill="#fff" d="M55.259 256.977c0-110.866 89.874-200.74 200.74-200.74a200.74 200.74 0 0 1 200.74 200.74c0 110.866-89.875 200.74-200.74 200.74-110.866 0-200.74-89.874-200.74-200.74z"/><path fill="#3498db" d="M82.644 256.976c0-95.74 77.613-173.354 173.354-173.354a173.354 173.354 0 0 1 173.354 173.354c0 95.741-77.613 173.355-173.354 173.355-95.74 0-173.354-77.614-173.354-173.355z"/><path fill="#3498db" d="M428.675 427.16c-93.863 93.862-245.942 94.19-340.208.734l169.735-171.206z"/><path fill="#fff" d="M270.127 275.198c-10.141-11.648-18.357-24.73-24.358-38.784l142.265-56.202z"/><path fill="#fff" d="M232.766 256.989c0-12.838 10.4-23.244 23.229-23.244a23.22 23.22 0 0 1 16.425 6.808 23.252 23.252 0 0 1 6.803 16.436c0 12.837-10.4 23.244-23.228 23.244-12.829 0-23.229-10.407-23.229-23.244z"/></g></svg>